<svg width="16" height="16" viewBox="0 0 16 16" fill="none" xmlns="http://www.w3.org/2000/svg">
<g clip-path="url(#clip0_87_2735)">
<path d="M0.193257 5.13996L5.63992 10.5866C5.94956 10.897 6.3174 11.1433 6.72237 11.3114C7.12734 11.4794 7.56148 11.5659 7.99992 11.5659C8.43837 11.5659 8.87252 11.4794 9.27748 11.3114C9.68245 11.1433 10.0503 10.897 10.3599 10.5866L15.8066 5.13996C15.9321 5.01442 16.0027 4.84416 16.0027 4.66663C16.0027 4.48909 15.9321 4.31883 15.8066 4.19329C15.6811 4.06776 15.5108 3.99723 15.3333 3.99723C15.1557 3.99723 14.9855 4.06776 14.8599 4.19329L9.41326 9.63996C9.03826 10.0145 8.52993 10.2249 7.99992 10.2249C7.46992 10.2249 6.96159 10.0145 6.58659 9.63996L1.13992 4.19329C1.07795 4.13081 1.00421 4.08121 0.922975 4.04736C0.841736 4.01352 0.754598 3.99609 0.66659 3.99609C0.578582 3.99609 0.491445 4.01352 0.410206 4.04736C0.328966 4.08121 0.255233 4.13081 0.193257 4.19329C0.130771 4.25527 0.0811745 4.329 0.0473286 4.41024C0.0134827 4.49148 -0.00394188 4.57862 -0.00394189 4.66663C-0.00394189 4.75463 0.0134827 4.84177 0.0473286 4.92301C0.0811745 5.00425 0.130771 5.07798 0.193257 5.13996Z" fill="#374957"/>
</g>
<defs>
<clipPath id="clip0_87_2735">
<rect width="16" height="16" fill="white" transform="translate(16 16) rotate(-180)"/>
</clipPath>
</defs>
</svg>
