<svg width="16" height="24" viewBox="0 0 16 24" fill="none" xmlns="http://www.w3.org/2000/svg">
<path d="M7.55129 0.00183105C7.55129 0.00183105 5.09386 0.00183123 3.26583 2.28004C1.67855 4.21437 1.01819 6.11824 1.01819 6.11824L7.54957 6.14869V0.00183105H7.55129Z" fill="#5E2B7C"/>
<path d="M0 12.5464C0 12.5464 0.029236 13.6067 0.269993 14.95C0.539984 16.5727 0.749788 17.1655 0.749788 17.1655L7.55116 17.1959V12.5464H0Z" fill="#A6227D"/>
<path d="M1.07837 18.0698C1.07837 18.0698 2.007 20.4734 3.62523 22.0961C5.39307 23.9068 7.55128 24 7.55128 24V18.0698H1.07837Z" fill="#CA197C"/>
<path d="M7.52021 11.6097L7.54944 6.9906H0.748066C0.748066 6.9906 0.448842 7.58343 0.23904 8.98761C2.52154e-06 10.3918 0 11.6097 0 11.6097H7.52021Z" fill="#832980"/>
<path d="M8.39038 23.9677C8.39038 23.9677 10.8478 23.8746 12.7051 21.6268C14.3835 19.5976 14.8031 18.0698 14.8031 18.0698H8.39038V23.9677Z" fill="#00548A"/>
<path d="M8.39038 12.516L8.41962 17.1978H15.1608C15.1608 17.1978 15.4308 16.4796 15.6698 15.0754C15.9089 13.6712 15.9691 12.5482 15.9691 12.5482L8.39038 12.516Z" fill="#006AAB"/>
<path d="M16 11.6723C16 11.6723 15.9708 10.6425 15.73 9.26876C15.46 7.64607 15.2502 7.021 15.2502 7.021H8.38867V11.6401L16 11.6723Z" fill="#1380C2"/>
<path d="M14.8925 6.14865C14.8925 6.14865 14.0533 3.71463 12.3749 2.02925C10.4575 0.0949256 8.35944 0 8.35944 0V6.14865H14.8925Z" fill="#1788C9"/>
</svg>
