<svg width="32" height="32" viewBox="0 0 32 32" fill="none" xmlns="http://www.w3.org/2000/svg">
<path d="M16 1.9375C8.23125 1.9375 1.9375 8.23125 1.9375 16C1.9375 23.7687 8.23125 30.0625 16 30.0625C23.7687 30.0625 30.0625 23.7687 30.0625 16C30.0625 8.23125 23.7687 1.9375 16 1.9375ZM20.0375 10.7563C20.0375 10.7563 18.55 10.7437 18.175 10.7437C17.6125 10.7437 17.2375 11.2313 17.2375 11.725V13.7937H20.0375L19.7188 16.6125H17.2062V23.8125H14.3625V16.65H11.9625V13.7625H14.4C14.4 13.7625 14.4 12.75 14.4 11.0375C14.4 9.51875 16.0875 8.18125 17.2625 8.18125C17.4375 8.18125 20.0375 8.20625 20.0375 8.20625V10.7563Z" fill="white"/>
</svg>
