<svg width="33" height="32" viewBox="0 0 33 32" fill="none" xmlns="http://www.w3.org/2000/svg">
<path d="M16.6 18.9401C18.2237 18.9401 19.54 17.6238 19.54 16.0001C19.54 14.3763 18.2237 13.0601 16.6 13.0601C14.9763 13.0601 13.66 14.3763 13.66 16.0001C13.66 17.6238 14.9763 18.9401 16.6 18.9401Z" fill="white"/>
<path d="M16.6 2C8.868 2 2.59998 8.26802 2.59998 16C2.59998 23.732 8.868 30 16.6 30C24.332 30 30.6 23.732 30.6 16C30.6 8.26802 24.332 2 16.6 2ZM25.2496 19.5582C25.1824 20.8892 24.8084 22.2018 23.8384 23.1614C22.859 24.1302 21.5403 24.4912 20.1965 24.5578H13.0035C11.6595 24.4912 10.341 24.1305 9.36158 23.1614C8.39155 22.2018 8.01758 20.8892 7.95038 19.5582V12.4418C8.01758 11.1108 8.39161 9.79822 9.36158 8.8385C10.341 7.8697 11.6597 7.50872 13.0035 7.44225H20.1964C21.5404 7.50872 22.859 7.86953 23.8384 8.8385C24.8084 9.79822 25.1824 11.1108 25.2496 12.4418L25.2496 19.5582Z" fill="white"/>
<path d="M20.1055 9.06387C18.3535 9.01582 14.8468 9.01582 13.0948 9.06387C12.1831 9.0889 11.1495 9.31587 10.4999 10.0097C9.82484 10.7309 9.56976 11.6023 9.54389 12.5771C9.49842 14.288 9.54389 19.4232 9.54389 19.4232C9.57352 20.3979 9.82484 21.2693 10.4999 21.9906C11.1495 22.6846 12.1831 22.9114 13.0948 22.9364C14.8468 22.9845 18.3535 22.9845 20.1055 22.9364C21.0173 22.9114 22.0509 22.6844 22.7005 21.9906C23.3755 21.2693 23.6306 20.398 23.6565 19.4232V12.5771C23.6306 11.6023 23.3755 10.7309 22.7005 10.0097C22.0507 9.31564 21.0171 9.0889 20.1055 9.06387ZM16.5999 20.5571C15.6987 20.5571 14.8176 20.2899 14.0682 19.7891C13.3188 19.2884 12.7347 18.5767 12.3898 17.744C12.0449 16.9113 11.9547 15.9951 12.1305 15.1111C12.3063 14.2271 12.7404 13.4152 13.3777 12.7779C14.015 12.1405 14.827 11.7065 15.7109 11.5307C16.5949 11.3549 17.5112 11.4451 18.3438 11.79C19.1765 12.1349 19.8882 12.719 20.389 13.4684C20.8897 14.2178 21.1569 15.0989 21.1569 16.0001C21.1569 17.2087 20.6768 18.3678 19.8222 19.2224C18.9676 20.077 17.8085 20.5571 16.5999 20.5571ZM21.1763 12.3838C20.9961 12.3837 20.8199 12.3302 20.67 12.2301C20.5202 12.1299 20.4034 11.9875 20.3345 11.821C20.2655 11.6545 20.2475 11.4712 20.2827 11.2944C20.3179 11.1176 20.4047 10.9553 20.5322 10.8278C20.6596 10.7004 20.822 10.6136 20.9988 10.5785C21.1756 10.5433 21.3589 10.5614 21.5254 10.6304C21.6919 10.6994 21.8342 10.8162 21.9344 10.966C22.0345 11.1159 22.0879 11.2921 22.0879 11.4724C22.0879 11.5921 22.0644 11.7106 22.0185 11.8212C21.9727 11.9318 21.9056 12.0323 21.8209 12.1169C21.7363 12.2015 21.6358 12.2687 21.5252 12.3145C21.4146 12.3602 21.296 12.3838 21.1763 12.3838Z" fill="white"/>
</svg>
