<svg width="33" height="32" viewBox="0 0 33 32" fill="none" xmlns="http://www.w3.org/2000/svg">
<path fill-rule="evenodd" clip-rule="evenodd" d="M16.2 1C24.4846 1 31.2 7.71543 31.2 16C31.2 24.2846 24.4846 31 16.2 31C7.91544 31 1.20001 24.2846 1.20001 16C1.20001 7.71543 7.91544 1 16.2 1ZM9.51798 22.9615H12.3908V13.6797H9.51798V22.9615ZM10.9406 12.4645C11.8793 12.4645 12.6399 11.6969 12.6399 10.7512C12.6399 9.80547 11.8793 9.03848 10.9406 9.03848C10.002 9.03848 9.242 9.80547 9.242 10.7512C9.242 11.6969 10.002 12.4645 10.9406 12.4645ZM16.9834 18.0895C16.9834 16.7846 17.5846 16.0064 18.7348 16.0064C19.7906 16.0064 20.2986 16.7529 20.2986 18.0895V22.9615H23.158C23.158 22.9615 23.158 19.5707 23.158 17.0846C23.158 14.5984 21.7488 13.3961 19.7807 13.3961C17.8119 13.3961 16.9834 14.9301 16.9834 14.9301V13.6797H14.2277V22.9615H16.9834C16.9834 22.9615 16.9834 19.5191 16.9834 18.0895Z" fill="white"/>
</svg>
