<svg width="36" height="40" viewBox="0 0 36 40" fill="none" xmlns="http://www.w3.org/2000/svg">
<path d="M14.7211 0C14.7211 0 14.3905 3.67068 13.9392 4.61879C13.052 6.48479 11.0222 7.35691 9.24792 7.97431C6.87207 8.81707 0 9.14779 0 14.6542C0 20.2358 9.20218 20.4767 9.20218 20.4767C9.20218 20.4767 3.59353 19.1375 3.59353 14.6991C3.59353 9.88434 8.30034 8.54593 10.2999 8.10901C12.044 7.73253 15.2768 7.31201 17.2471 5.6118C19.4425 3.71645 19.5323 0 19.5323 0H14.7211Z" fill="#FACE0E"/>
<path d="M13.1124 20.4766C13.1124 20.4766 4.13544 20.6122 4.13544 14.7595C4.13544 8.7565 11.6539 8.21509 13.1728 7.89905C15.2026 7.47767 17.203 7.07183 18.8418 4.83022C20.6015 2.42281 20.3452 0.000732422 20.3452 0.000732422H25.0822C25.0822 0.000732422 25.4282 3.55139 22.8565 5.34227C20.4505 7.04247 17.2927 7.64432 14.7667 8.12529C12.2554 8.62179 7.47352 9.37389 7.47352 14.6403C7.47352 19.348 13.1124 20.4766 13.1124 20.4766Z" fill="#F5A61B"/>
<path d="M25.9237 0.0148926C25.9237 0.0148926 25.7882 2.99392 24.8562 4.18208C23.7282 5.59648 22.5105 6.88998 18.6158 7.73274C15.0974 8.48484 12.2253 8.7862 10.451 9.95968C9.11244 10.8473 8.64642 11.8706 8.64642 11.8706H14.0143C14.0143 11.8706 14.6011 10.4415 15.2622 9.77921C15.9086 9.11691 16.5101 8.60573 18.7806 8.22925C20.9312 7.86831 23.1863 7.80787 25.4119 7.11621C28.284 6.22855 29.2463 4.61901 29.878 3.59578C30.9308 1.94047 30.8255 0.0304354 30.8255 0.0304354L25.9237 0.0148926Z" fill="#F08024"/>
<path d="M8.37541 12.2771C8.37541 12.2771 8.22525 12.999 8.15017 13.3755C8.07509 13.7519 8.03021 14.5187 8.03021 14.5187H13.5189C13.5189 14.5187 13.5042 14.0369 13.6242 13.435C13.7441 12.8332 13.865 12.2918 13.865 12.2918H8.37628V12.2771H8.37541Z" fill="#EB5F24"/>
<path d="M8.04492 14.9402H13.5483C13.5483 14.9402 13.5336 15.3762 13.6536 16.0532C13.7735 16.7302 13.9245 17.1818 13.9245 17.1818H8.67664C8.67664 17.1818 8.34611 16.7155 8.19508 16.0385C8.04492 15.3762 8.04492 14.9402 8.04492 14.9402Z" fill="#E5242B"/>
<path d="M8.97693 17.6177L14.0747 17.6324C14.0747 17.6324 14.2248 18.1591 14.8117 19.0312C15.4279 19.9638 16.391 20.4758 16.391 20.4758C16.391 20.4758 14.1653 20.4309 12.2261 19.7833C9.98492 19.0321 8.97693 17.6177 8.97693 17.6177Z" fill="#CE222A"/>
<path d="M17.7588 8.90698C17.7588 8.90698 16.5256 8.90698 15.6082 10.0053C14.8117 10.9379 14.4803 11.8558 14.4803 11.8558L17.758 11.8705V8.90698H17.7588Z" fill="#5E2B7C"/>
<path d="M13.9694 14.9548C13.9694 14.9548 13.984 15.466 14.1049 16.1136C14.2403 16.896 14.3456 17.1818 14.3456 17.1818L17.7588 17.1964V14.9548H13.9694Z" fill="#A6227D"/>
<path d="M14.5105 17.6177C14.5105 17.6177 14.9765 18.7765 15.7886 19.5588C16.6758 20.4318 17.7588 20.4767 17.7588 20.4767V17.6177H14.5105Z" fill="#CA197C"/>
<path d="M17.7433 14.5031L17.7579 12.2761H14.3448C14.3448 12.2761 14.1946 12.5619 14.0893 13.2389C13.9694 13.9159 13.9694 14.5031 13.9694 14.5031H17.7433Z" fill="#832980"/>
<path d="M21.3678 29.4285C21.3678 29.4285 21.398 26.1783 22.06 24.9297C23.1275 22.8988 24.5558 22.3116 26.9023 21.4542C29.5189 20.4914 36 20.2505 36 14.7138C36 9.20736 26.8272 8.90601 26.8272 8.90601C26.8272 8.90601 32.3909 10.0795 32.3909 14.7734C32.3909 19.5882 27.6695 20.867 25.6846 21.3635C23.8956 21.8151 20.8129 22.0258 18.7374 23.8607C16.5575 25.7863 16.4669 29.4277 16.4669 29.4277H21.3678V29.4285Z" fill="#9EC03B"/>
<path d="M22.841 8.92157C22.841 8.92157 31.9232 8.80154 31.9232 14.7441C31.9232 20.5519 24.2693 21.2884 22.7659 21.6045C20.7361 22.0259 18.7961 22.4317 17.1573 24.6733C15.3976 27.0652 15.6686 29.4277 15.6686 29.4277L10.9316 29.4424C10.9316 29.4424 10.6011 25.9668 13.1115 24.1466C15.5323 22.3859 18.6149 21.8445 21.1409 21.348C23.6669 20.8515 28.5092 20.1141 28.5092 14.8485C28.5101 10.0052 22.841 8.92157 22.841 8.92157Z" fill="#009848"/>
<path d="M10.0902 29.4285C10.0902 29.4285 10.0902 26.585 11.1431 25.2155C12.2408 23.7864 13.474 22.5525 17.3834 21.6951C20.8872 20.943 23.7895 20.6572 25.5638 19.4837C26.9023 18.596 27.3079 17.6177 27.3079 17.6177H21.8943C21.8943 17.6177 21.3532 18.9569 20.6913 19.6037C19.8792 20.4007 19.383 20.747 17.1728 21.1986C14.917 21.6648 12.8268 21.6044 10.6166 22.2969C7.94046 23.1397 6.78232 24.719 6.1506 25.7275C5.09774 27.3829 5.18836 29.4138 5.18836 29.4138L10.0902 29.4285Z" fill="#007551"/>
<path d="M27.578 17.1817C27.578 17.1817 27.7584 16.655 27.8637 16.0834C27.9241 15.7069 27.9689 14.9246 27.9689 14.9246H22.4354C22.4354 14.9246 22.4656 15.3762 22.3603 15.978C22.255 16.5799 22.0746 17.1662 22.0746 17.1662L27.578 17.1817Z" fill="#008E66"/>
<path d="M27.9534 14.5332H22.4647C22.4647 14.5332 22.4647 14.2328 22.3896 13.5549C22.3145 12.8779 22.1039 12.2908 22.1039 12.2908L27.4123 12.3055C27.4123 12.3055 27.6832 12.7717 27.8334 13.4487C27.9836 14.1274 27.9534 14.5332 27.9534 14.5332Z" fill="#007196"/>
<path d="M27.0214 11.8703L21.9392 11.8401C21.9392 11.8401 21.789 11.3133 21.172 10.3652C20.5256 9.38689 19.6229 8.89038 19.6229 8.89038C19.6229 8.89038 21.7735 8.9206 23.6824 9.6278C26.0591 10.531 27.0214 11.8703 27.0214 11.8703Z" fill="#0980AF"/>
<path d="M18.1799 20.4611C18.1799 20.4611 19.4132 20.4162 20.3452 19.3326C21.1875 18.3542 21.3981 17.6177 21.3981 17.6177H18.1799V20.4611Z" fill="#00548A"/>
<path d="M18.1799 14.9402L18.1946 17.1973H21.5776C21.5776 17.1973 21.7131 16.8511 21.833 16.1741C21.953 15.4971 21.9832 14.9557 21.9832 14.9557L18.1799 14.9402Z" fill="#006AAB"/>
<path d="M21.9987 14.5332C21.9987 14.5332 21.984 14.0367 21.8632 13.3744C21.7277 12.5921 21.6224 12.2908 21.6224 12.2908H18.1791V14.5177L21.9987 14.5332Z" fill="#1380C2"/>
<path d="M21.443 11.8704C21.443 11.8704 21.0218 10.6969 20.1795 9.88434C19.2173 8.95177 18.1644 8.90601 18.1644 8.90601V11.8704H21.443Z" fill="#1788C9"/>
<path d="M1.28806 33.1789V38.1189H0.54272V33.1789H1.28806ZM2.12988 33.8206V33.1789H5.95304V33.8206H4.41171V38.1189H3.66879V33.8206H2.12988ZM6.79787 33.1789H7.70241L9.27509 37.019H9.33298L10.9057 33.1789H11.8102V38.1189H11.101V34.5442H11.0552L9.59831 38.1117H9.00976L7.55286 34.5418H7.50703V38.1189H6.79787V33.1789ZM13.3111 38.1189H12.52L14.2977 33.1789H15.1588L16.9365 38.1189H16.1453L14.7487 34.0762H14.7101L13.3111 38.1189ZM13.4438 36.1844H16.0103V36.8115H13.4438V36.1844ZM19.3799 38.1189V37.5786L21.0515 35.8467C21.23 35.6586 21.3772 35.4937 21.4929 35.3522C21.6103 35.2091 21.698 35.0732 21.7559 34.9446C21.8137 34.8159 21.8427 34.6793 21.8427 34.5345C21.8427 34.3705 21.8041 34.229 21.7269 34.11C21.6497 33.9894 21.5444 33.8969 21.4109 33.8326C21.2775 33.7667 21.1271 33.7337 20.9599 33.7337C20.783 33.7337 20.6286 33.7699 20.4967 33.8423C20.3649 33.9146 20.2636 34.0167 20.1928 34.1486C20.1221 34.2805 20.0867 34.4348 20.0867 34.6117H19.3751C19.3751 34.311 19.4443 34.0481 19.5826 33.823C19.7209 33.5978 19.9106 33.4234 20.1518 33.2995C20.393 33.1741 20.6672 33.1114 20.9743 33.1114C21.2847 33.1114 21.5581 33.1733 21.7944 33.2971C22.0324 33.4193 22.2182 33.5866 22.3516 33.7988C22.4851 34.0095 22.5518 34.2475 22.5518 34.5128C22.5518 34.6961 22.5173 34.8754 22.4481 35.0507C22.3806 35.226 22.2624 35.4214 22.0935 35.6369C21.9247 35.8507 21.6899 36.1104 21.3892 36.416L20.4075 37.4435V37.4797H22.6314V38.1189H19.3799ZM25.2654 38.2009C24.8843 38.1993 24.5587 38.0988 24.2885 37.8994C24.0184 37.7 23.8118 37.4097 23.6686 37.0286C23.5255 36.6475 23.454 36.1884 23.454 35.6513C23.454 35.1158 23.5255 34.6584 23.6686 34.2788C23.8134 33.8993 24.0208 33.6099 24.291 33.4105C24.5627 33.2111 24.8875 33.1114 25.2654 33.1114C25.6433 33.1114 25.9674 33.2119 26.2375 33.4129C26.5077 33.6123 26.7143 33.9018 26.8574 34.2813C27.0021 34.6592 27.0745 35.1158 27.0745 35.6513C27.0745 36.19 27.003 36.6499 26.8598 37.031C26.7167 37.4105 26.5101 37.7008 26.2399 37.9018C25.9698 38.1012 25.6449 38.2009 25.2654 38.2009ZM25.2654 37.5569C25.5999 37.5569 25.8612 37.3937 26.0494 37.0672C26.2391 36.7408 26.334 36.2688 26.334 35.6513C26.334 35.2413 26.2906 34.8947 26.2037 34.6117C26.1185 34.3271 25.9955 34.1116 25.8347 33.9653C25.6755 33.8173 25.4857 33.7434 25.2654 33.7434C24.9326 33.7434 24.6713 33.9074 24.4815 34.2354C24.2918 34.5635 24.1961 35.0354 24.1945 35.6513C24.1945 36.063 24.2371 36.4111 24.3223 36.6958C24.4092 36.9788 24.5322 37.1935 24.6914 37.3398C24.8506 37.4845 25.0419 37.5569 25.2654 37.5569ZM27.9302 38.1189V37.5786L29.6018 35.8467C29.7803 35.6586 29.9274 35.4937 30.0432 35.3522C30.1606 35.2091 30.2482 35.0732 30.3061 34.9446C30.364 34.8159 30.3929 34.6793 30.3929 34.5345C30.3929 34.3705 30.3544 34.229 30.2772 34.11C30.2 33.9894 30.0946 33.8969 29.9612 33.8326C29.8277 33.7667 29.6774 33.7337 29.5101 33.7337C29.3332 33.7337 29.1789 33.7699 29.047 33.8423C28.9151 33.9146 28.8138 34.0167 28.7431 34.1486C28.6723 34.2805 28.6369 34.4348 28.6369 34.6117H27.9254C27.9254 34.311 27.9945 34.0481 28.1328 33.823C28.2711 33.5978 28.4609 33.4234 28.7021 33.2995C28.9433 33.1741 29.2175 33.1114 29.5246 33.1114C29.8349 33.1114 30.1083 33.1733 30.3447 33.2971C30.5827 33.4193 30.7684 33.5866 30.9019 33.7988C31.0354 34.0095 31.1021 34.2475 31.1021 34.5128C31.1021 34.6961 31.0675 34.8754 30.9984 35.0507C30.9308 35.226 30.8126 35.4214 30.6438 35.6369C30.475 35.8507 30.2402 36.1104 29.9395 36.416L28.9577 37.4435V37.4797H31.1817V38.1189H27.9302ZM32.2623 38.1189L34.4187 33.8543V33.8181H31.9246V33.1789H35.1906V33.8398L33.0414 38.1189H32.2623Z" fill="black"/>
</svg>
