<svg width="33" height="32" viewBox="0 0 33 32" fill="none" xmlns="http://www.w3.org/2000/svg">
<g clip-path="url(#clip0_102_962)">
<path d="M12.1274 12.6477C12.5173 12.2578 12.5173 11.6255 12.1274 11.2356C11.7374 10.8456 11.1052 10.8456 10.7152 11.2356C10.3253 11.6255 10.3253 12.2578 10.7152 12.6477C11.1052 13.0377 11.7374 13.0377 12.1274 12.6477Z" fill="white"/>
<path d="M16.175 12.9407C16.7265 12.9407 17.1737 12.4936 17.1737 11.942C17.1737 11.3905 16.7265 10.9434 16.175 10.9434C15.6234 10.9434 15.1763 11.3905 15.1763 11.942C15.1763 12.4936 15.6234 12.9407 16.175 12.9407Z" fill="white"/>
<path d="M18.1743 17.5158C18.6005 17.5158 18.946 17.1703 18.946 16.7441C18.946 16.3179 18.6005 15.9724 18.1743 15.9724C17.7481 15.9724 17.4026 16.3179 17.4026 16.7441C17.4026 17.1703 17.7481 17.5158 18.1743 17.5158Z" fill="white"/>
<path d="M16.4 1C13.4333 1 10.5332 1.87973 8.06645 3.52796C5.59971 5.17618 3.67712 7.51886 2.54181 10.2597C1.40649 13.0006 1.10944 16.0166 1.68822 18.9264C2.267 21.8361 3.69561 24.5088 5.7934 26.6066C7.89119 28.7044 10.5639 30.133 13.4736 30.7118C16.3834 31.2906 19.3994 30.9935 22.1403 29.8582C24.8811 28.7229 27.2238 26.8003 28.872 24.3336C30.5203 21.8668 31.4 18.9667 31.4 16C31.4 12.0218 29.8196 8.20644 27.0066 5.3934C24.1936 2.58035 20.3782 1 16.4 1ZM11.2941 19.4776C10.5243 19.8882 9.75461 20.3105 8.98684 20.7132C9.2 20.0362 9.42303 19.3651 9.65987 18.6921C8.43816 17.877 7.42961 16.6553 7.09408 15.1987C5.81711 10.2882 12.3954 6.13158 17.677 9.1079H17.6572C19.1454 9.93092 20.3276 11.3599 20.6711 13.0553C16.0763 12.7276 12.9737 16.4105 14.1796 19.8921C13.201 19.9218 12.2247 19.7815 11.2941 19.4776ZM23.6257 22.2309C23.823 22.7816 23.9928 23.3342 24.1605 23.8947C23.5171 23.5849 22.925 23.1665 22.2618 22.9079C18.9421 23.8691 16.1434 22.5882 14.9217 20.5632C12.3026 16.2487 18.0283 11.5474 23.0651 14.1092C26.3059 15.7553 27.0579 19.7875 23.6257 22.2309Z" fill="white"/>
<path d="M21.9618 17.5158C22.388 17.5158 22.7335 17.1703 22.7335 16.7441C22.7335 16.3179 22.388 15.9724 21.9618 15.9724C21.5356 15.9724 21.1901 16.3179 21.1901 16.7441C21.1901 17.1703 21.5356 17.5158 21.9618 17.5158Z" fill="white"/>
</g>
<defs>
<clipPath id="clip0_102_962">
<rect width="30" height="30" fill="white" transform="translate(1.39999 1)"/>
</clipPath>
</defs>
</svg>
