<svg width="32" height="32" viewBox="0 0 32 32" fill="none" xmlns="http://www.w3.org/2000/svg">
<g clip-path="url(#clip0_102_972)">
<path d="M13.9197 18.4198L18.0803 16.006L13.9197 13.5803V18.4198Z" fill="white"/>
<path d="M16 1C13.0333 1 10.1332 1.87973 7.66645 3.52795C5.19971 5.17618 3.27713 7.51885 2.14181 10.2597C1.0065 13.0006 0.709449 16.0166 1.28823 18.9263C1.86701 21.8361 3.29562 24.5088 5.3934 26.6066C7.49119 28.7044 10.1639 30.133 13.0736 30.7118C15.9834 31.2905 18.9994 30.9935 21.7402 29.8582C24.4811 28.7229 26.8238 26.8003 28.472 24.3335C30.1203 21.8668 31 18.9667 31 16C31 12.0217 29.4196 8.20644 26.6066 5.3934C23.7936 2.58035 19.9782 1 16 1ZM23.8947 18.6546C23.895 19.0469 23.8179 19.4354 23.668 19.798C23.518 20.1605 23.2981 20.4899 23.0208 20.7674C22.7435 21.0449 22.4142 21.2651 22.0518 21.4153C21.6893 21.5654 21.3009 21.6428 20.9086 21.6428H11.0914C10.6991 21.6428 10.3107 21.5654 9.94823 21.4153C9.5858 21.2651 9.25652 21.0449 8.9792 20.7674C8.70188 20.4899 8.48196 20.1605 8.33201 19.798C8.18206 19.4354 8.10501 19.0469 8.10527 18.6546V13.3454C8.10501 12.9531 8.18206 12.5645 8.33201 12.202C8.48196 11.8395 8.70188 11.5101 8.9792 11.2326C9.25652 10.9551 9.5858 10.7349 9.94823 10.5847C10.3107 10.4345 10.6991 10.3572 11.0914 10.3572H20.9086C21.3009 10.3572 21.6893 10.4345 22.0518 10.5847C22.4142 10.7349 22.7435 10.9551 23.0208 11.2326C23.2981 11.5101 23.518 11.8395 23.668 12.202C23.8179 12.5645 23.895 12.9531 23.8947 13.3454V18.6546Z" fill="white"/>
</g>
<defs>
<clipPath id="clip0_102_972">
<rect width="32" height="32" fill="white"/>
</clipPath>
</defs>
</svg>
